<svg width="18" height="18" viewBox="0 0 18 18" fill="none" xmlns="http://www.w3.org/2000/svg">
<path d="M11.5402 5.7433L11.7938 4.22023C11.8163 4.05554 11.8295 3.88969 11.8337 3.72352C11.8331 2.88005 11.4993 2.07319 10.9048 1.47874C10.3104 0.884296 9.50352 0.55048 8.66006 0.549919C7.72922 0.555953 6.84618 0.974139 6.24868 1.69186C5.64724 2.41023 5.38603 3.35245 5.53303 4.27364L5.76349 5.78225L4.24212 5.53902C4.07746 5.51778 3.91158 5.50555 3.74543 5.50256C2.90194 5.50887 2.09277 5.84823 1.49425 6.44675C0.895727 7.04527 0.556389 7.85445 0.550062 8.69793C0.552223 9.62814 0.963899 10.5074 1.67555 11.1016C2.38349 11.7117 3.32466 11.9808 4.25248 11.8379L5.7627 11.5971L5.56645 13.1719C5.54535 13.3368 5.5335 13.5027 5.53078 13.6688C5.53848 14.512 5.87924 15.3157 6.4789 15.9049C7.07855 16.4941 7.88849 16.821 8.7322 16.8144C9.66326 16.8005 10.543 16.3749 11.1346 15.6524C11.7301 14.9292 11.9834 13.9851 11.8286 13.0655L11.5853 11.5594L13.1092 11.7897C13.274 11.8095 13.4401 11.8203 13.6063 11.8219C14.45 11.8084 15.2565 11.4624 15.8501 10.859C16.4438 10.2556 16.7763 9.44384 16.7755 8.60061C16.7655 7.67076 16.3462 6.79528 15.6293 6.20739C14.916 5.60342 13.9723 5.34249 13.0454 5.49318L11.5368 5.74667M7.45876 9.82481C7.25525 9.6213 6.96567 9.52842 6.68026 9.57503L3.96549 10.0556C3.55805 10.1232 3.14244 10.0108 2.82653 9.74749C2.51906 9.48401 2.34342 9.09812 2.34602 8.69187C2.33651 8.31989 2.47782 7.95865 2.73806 7.69063C3.00254 7.42686 3.36071 7.27892 3.73298 7.27965L3.94946 7.29159L6.68653 7.74088C6.97152 7.78565 7.26175 7.69054 7.46676 7.48554C7.67166 7.28064 7.76664 6.99053 7.72198 6.70543L7.27907 3.97474C7.23827 3.6012 7.35108 3.22616 7.59145 2.93548C7.83196 2.64465 8.17947 2.46321 8.55443 2.43266C8.92928 2.40198 9.29959 2.52468 9.58045 2.77296C9.86131 3.021 10.0285 3.37324 10.0439 3.74877L10.0369 3.97171L9.57527 6.7183C9.52855 7.00361 9.62156 7.29307 9.82517 7.49668C10.0305 7.69839 10.351 7.82478 10.6361 7.77577L13.3476 7.27234C13.7546 7.20139 14.1713 7.3102 14.4895 7.57073C14.7993 7.8315 14.9783 8.21576 14.9791 8.62189C14.9918 8.99366 14.8535 9.35596 14.5954 9.62609C14.3331 9.892 13.9761 10.0429 13.6037 10.0453L13.3871 10.0352L10.6454 9.60931C10.3599 9.56697 10.0704 9.6645 9.86709 9.87117C9.66386 10.0777 9.57131 10.3685 9.6184 10.6532L10.0846 13.3791C10.1285 13.7522 10.0189 14.128 9.78091 14.4206C9.54279 14.7134 9.19672 14.8977 8.82191 14.9314C8.44721 14.9653 8.07575 14.8458 7.79271 14.5999C7.50966 14.3544 7.33942 14.0037 7.32081 13.6284L7.32596 13.4055L7.76446 10.656C7.80878 10.3704 7.66415 10.0266 7.45876 9.82481Z" stroke="black" stroke-width="1.1" stroke-linecap="round"/>
</svg>
